<?xml version="1.0" encoding="utf-8"?>
<!-- Generator: Adobe Illustrator 22.0.1, SVG Export Plug-In . SVG Version: 6.00 Build 0)  -->
<svg version="1.1" id="Layer_1" xmlns="http://www.w3.org/2000/svg" xmlns:xlink="http://www.w3.org/1999/xlink" x="0px" y="0px"
	 viewBox="0 0 50 50" style="enable-background:new 0 0 50 50;" xml:space="preserve">
<style type="text/css">
	.st0{display:none;}
	.st1{display:inline;}
	.st2{font-family:'MyriadPro-Regular';}
	.st3{font-size:50.4764px;}
	.st4{display:inline;fill:none;stroke:#000000;stroke-width:2;stroke-miterlimit:10;}
	.st5{fill:#494D51;}
	.st6{display:inline;stroke:#000000;stroke-width:2;stroke-miterlimit:10;}
</style>
<g class="st0">
	<rect x="-17.5" y="-99.8" class="st1" width="787" height="375"/>
</g>
<g class="st0">
	<g class="st1">
		<circle cx="25" cy="17" r="32"/>
		<text transform="matrix(1 0 0 1 19.2702 33.0767)" class="st2 st3">i</text>
	</g>
</g>
<g class="st0">
	<circle class="st4" cx="25" cy="17" r="31"/>
	<path class="st4" d="M29.2,1.6c0,1.9-1.4,3.3-3.5,3.3c-2.1,0-3.4-1.5-3.4-3.3c0-1.9,1.4-3.4,3.5-3.4C27.9-1.8,29.2-0.3,29.2,1.6z
		 M22.6,33.1V8.5h6.3v24.6H22.6z"/>
</g>
<g>
	<g>
		<path class="st5" d="M25,0C11.2,0,0,11.2,0,25s11.2,25,25,25s25-11.2,25-25S38.8,0,25,0z M27.4,38.6h-4.9V19.4h4.9V38.6z M25,16.6
			c-1.6,0-2.7-1.1-2.7-2.6c0-1.5,1.1-2.6,2.7-2.6c1.7,0,2.7,1.1,2.7,2.6C27.7,15.5,26.7,16.6,25,16.6z"/>
	</g>
</g>
<g class="st0">
	<circle class="st6" cx="25" cy="17" r="31"/>
	<path class="st6" d="M29.2,1.6c0,1.9-1.4,3.3-3.5,3.3c-2.1,0-3.4-1.5-3.4-3.3c0-1.9,1.4-3.4,3.5-3.4C27.9-1.8,29.2-0.3,29.2,1.6z
		 M22.6,33.1V8.5h6.3v24.6H22.6z"/>
</g>
</svg>
