<?xml version="1.0" encoding="utf-8"?>
<!-- Generator: Adobe Illustrator 22.0.1, SVG Export Plug-In . SVG Version: 6.00 Build 0)  -->
<svg version="1.1"
	 id="Layer_1" xmlns:cc="http://creativecommons.org/ns#" xmlns:dc="http://purl.org/dc/elements/1.1/" xmlns:inkscape="http://www.inkscape.org/namespaces/inkscape" xmlns:rdf="http://www.w3.org/1999/02/22-rdf-syntax-ns#" xmlns:sodipodi="http://sodipodi.sourceforge.net/DTD/sodipodi-0.dtd" xmlns:svg="http://www.w3.org/2000/svg"
	 xmlns="http://www.w3.org/2000/svg" xmlns:xlink="http://www.w3.org/1999/xlink" x="0px" y="0px" viewBox="0 0 86 86"
	 style="enable-background:new 0 0 86 86;" xml:space="preserve">
<style type="text/css">
	.st0{fill:#494D51;}
</style>
<g transform="translate(0,-952.36218)">
	<path class="st0" d="M43,952.4c-23.7,0-43,19.3-43,43c0,23.7,19.3,43,43,43s43-19.3,43-43C86,971.6,66.7,952.4,43,952.4z M43,954.4
		c22.7,0,41,18.3,41,41c0,22.7-18.3,41-41,41s-41-18.3-41-41S20.3,954.4,43,954.4z M47,964.4c-2.8,0-5,2.2-5,5s2.2,5,5,5s5-2.2,5-5
		S49.8,964.4,47,964.4z M43.8,977.4c-2.7,0.2-5.6,2-8,4.3l-0.3,3.6c2.3-1.1,6.6-2.2,7.3,0.6c1.7,6.6-6.1,19.2-7.8,25.2
		c-4.5,17.8,6.1,18,13.3,10.9l0.2-3.6c-4.3,1.9-10.3,2.9-6.2-8.8c1.1-4.1,11.5-24.3,6.1-30.6C47,977.8,45.4,977.3,43.8,977.4
		L43.8,977.4z"/>
</g>
</svg>
